<?xml version="1.0" ?><svg xmlns="http://www.w3.org/2000/svg" id="Fresh_Grass" data-name="Fresh Grass" viewBox="0 0 64 64"><defs><style>
      .cls-1 {
        stroke-width: 0px;
      }
    </style></defs><path class="cls-1" d="M61,56h-5.91c.37-3.53,1.87-14.94,6.71-21.4.25-.33.27-.77.05-1.12-.21-.35-.62-.54-1.02-.46-.13.02-9.7,1.84-14.76,10.97,1.44-8.29,4.79-18.51,12.52-24.18.37-.28.51-.77.33-1.2-.18-.43-.63-.67-1.08-.6-.18.04-13.35,2.44-20.43,17.16-.57-2.13-1.23-4.18-1.98-6.12,1.71-1.64,3.69-3.06,6-4.15.43-.2.65-.67.54-1.14-.11-.46-.53-.78-1.01-.76-.09,0-3.27.16-7.45,1.6h-.01C26.32,9.86,15.77,6.21,15.32,6.05c-.43-.14-.9.02-1.15.39-.25.37-.22.87.07,1.21,3.93,4.61,7.07,10.14,9.38,16.52-7.58-8-16.29-9.92-17.33-10.12t0,0s-.06-.02-.08-.02c-.06-.02-.13-.03-.2-.03-.06,0-.12.03-.18.04-.01,0-.03,0-.04,0h0c-.12.03-.23.08-.33.14,0,0-.01.01-.02.02-.26.18-.43.46-.43.8,0,.36.19.67.47.84h0s0,0,0,0c.03.02.05.04.08.06,6.49,3.58,11.27,9.73,14.24,18.3-1.49,1.9-2.82,4.11-3.9,6.71-5.18-6.49-12.4-7.83-12.73-7.89-.4-.08-.81.11-1.02.46-.22.35-.2.79.05,1.12,4.84,6.46,6.34,17.87,6.71,21.4H3c-.55,0-1,.45-1,1s.45,1,1,1h58c.55,0,1-.45,1-1s-.45-1-1-1ZM18.59,10.01c3.57,2.32,8.9,6.91,13.04,15.3-1.52.64-3.13,1.44-4.73,2.46-1.95-6.72-4.74-12.67-8.31-17.76ZM23.02,56h-8.01c.09-4.93.83-9.07,2.03-12.55.01,0,.01-.01.01-.02.06-.1.1-.21.1-.33t0-.02c1.13-3.17,2.62-5.78,4.32-7.93.16-.11.28-.26.35-.44,1.47-1.8,3.09-3.26,4.74-4.45.01,0,.01-.01.01-.01l.65-.46c1.76-1.2,3.54-2.09,5.21-2.76.65-.27,1.28-.49,1.88-.69.62-.2,1.22-.38,1.78-.52-.51.39-1,.8-1.47,1.23-.54.47-1.06.98-1.55,1.49-8.73,9.2-9.9,23.52-10.06,27.46ZM30.8,35.02c.89-1.52,1.92-2.99,3.1-4.35.87,2.38,1.6,4.91,2.2,7.55-.85,2.23-1.56,4.7-2.08,7.44-.7-3.83-1.77-7.39-3.22-10.64ZM42.98,56h-7.97c.1-6.99,1.23-12.63,2.94-17.19h.01c.08-.14.14-.28.16-.44,4.05-10.4,11.14-15.02,15.72-17-10.3,11.02-10.88,29.94-10.86,34.63Z"/></svg>