<?xml version="1.0" ?><svg xmlns="http://www.w3.org/2000/svg" id="Sprinkler" viewBox="0 0 64 64"><defs><style>
      .cls-1 {
        stroke-width: 0px;
      }
    </style></defs><path class="cls-1" d="M61,44h-10v-6h1c3.86,0,7-3.14,7-7,0-.55-.45-1-1-1h-2c-2.55,0-4.78,1.37-6,3.41-1.22-2.04-3.45-3.41-6-3.41h-2c-.55,0-1,.45-1,1,0,3.86,3.14,7,7,7h1v6h-10v-16h2c.55,0,1-.45,1-1v-4c0-.55-.45-1-1-1h-1v-10h2c.55,0,1-.45,1-1,0-3.86-3.14-7-7-7h-8c-3.86,0-7,3.14-7,7,0,.55.45,1,1,1h2v10h-1c-.55,0-1,.45-1,1v4c0,.55.45,1,1,1h2v16h-10v-6h1c3.86,0,7-3.14,7-7,0-.55-.45-1-1-1h-2c-2.55,0-4.78,1.37-6,3.41-1.22-2.04-3.45-3.41-6-3.41h-2c-.55,0-1,.45-1,1,0,3.86,3.14,7,7,7h1v6H3c-.55,0-1,.45-1,1v14c0,.55.45,1,1,1h58c.55,0,1-.45,1-1v-14c0-.55-.45-1-1-1ZM48,36c-2.42,0-4.43-1.72-4.9-4h.9c2.42,0,4.43,1.72,4.9,4h-.9ZM12,36c-2.42,0-4.43-1.72-4.9-4h.9c2.42,0,4.43,1.72,4.9,4h-.9ZM23.1,10c.47-2.28,2.48-4,4.9-4h8c2.42,0,4.43,1.72,4.9,4h-17.8ZM33,16v2c0,.55-.45,1-1,1s-1-.45-1-1v-2c0-.55.45-1,1-1s1,.45,1,1ZM24,26v-2h16v2h-16ZM60,58H4v-12h56v12Z"/><circle class="cls-1" cx="10" cy="50" r="1"/><circle class="cls-1" cx="15" cy="55" r="1"/><circle class="cls-1" cx="20" cy="49" r="1"/><circle class="cls-1" cx="25" cy="53" r="1"/><circle class="cls-1" cx="32" cy="49.33" r="1"/><circle class="cls-1" cx="37" cy="55" r="1"/><circle class="cls-1" cx="43.59" cy="51" r="1"/><circle class="cls-1" cx="50.3" cy="55" r="1"/><circle class="cls-1" cx="54" cy="50" r="1"/><path class="cls-1" d="M42,15c0,.55.45,1,1,1h1c.55,0,1-.45,1-1s-.45-1-1-1h-1c-.55,0-1,.45-1,1Z"/><path class="cls-1" d="M47.43,16.9c.42.23.81.51,1.17.82.19.17.42.25.66.25.28,0,.56-.12.75-.34.36-.42.32-1.05-.1-1.41-.46-.4-.97-.76-1.5-1.06-.48-.27-1.09-.1-1.36.38s-.1,1.09.38,1.36Z"/><path class="cls-1" d="M50.94,22.04c.07.5.5.86.99.86.05,0,.09,0,.14,0,.55-.08.93-.58.85-1.13-.08-.61-.23-1.21-.44-1.79-.18-.52-.76-.79-1.28-.61-.52.19-.79.76-.61,1.28.16.45.27.92.34,1.39Z"/><path class="cls-1" d="M52,25c-.55,0-1,.45-1,1v1c0,.55.45,1,1,1s1-.45,1-1v-1c0-.55-.45-1-1-1Z"/><path class="cls-1" d="M44,18h-1c-.55,0-1,.45-1,1s.45,1,1,1h1c.55,0,1-.45,1-1s-.45-1-1-1Z"/><path class="cls-1" d="M46.88,22.17c.13.44.53.73.96.73.09,0,.18-.01.28-.04.53-.15.84-.71.69-1.24-.12-.41-.29-.81-.51-1.18-.28-.47-.9-.63-1.37-.34-.47.28-.63.9-.34,1.37.13.22.24.46.31.7Z"/><path class="cls-1" d="M48,25c-.55,0-1,.45-1,1v1c0,.55.45,1,1,1s1-.45,1-1v-1c0-.55-.45-1-1-1Z"/><path class="cls-1" d="M20,16h1c.55,0,1-.45,1-1s-.45-1-1-1h-1c-.55,0-1,.45-1,1s.45,1,1,1Z"/><path class="cls-1" d="M11.94,22.89s.09,0,.14,0c.49,0,.92-.36.99-.86.07-.47.18-.94.34-1.39.18-.52-.09-1.09-.61-1.28-.52-.18-1.09.09-1.28.61-.2.58-.35,1.18-.44,1.79-.08.55.31,1.05.85,1.13Z"/><path class="cls-1" d="M14.74,17.97c.23,0,.47-.08.66-.25.36-.31.75-.59,1.17-.82.48-.27.65-.88.38-1.36s-.88-.65-1.36-.38c-.53.3-1.04.66-1.5,1.06-.42.36-.46.99-.1,1.41.2.23.48.34.75.34Z"/><path class="cls-1" d="M12,28c.55,0,1-.45,1-1v-1c0-.55-.45-1-1-1s-1,.45-1,1v1c0,.55.45,1,1,1Z"/><path class="cls-1" d="M20,20h1c.55,0,1-.45,1-1s-.45-1-1-1h-1c-.55,0-1,.45-1,1s.45,1,1,1Z"/><path class="cls-1" d="M15.71,20.43c-.22.37-.39.77-.51,1.18-.15.53.16,1.08.69,1.24.09.03.18.04.28.04.43,0,.83-.29.96-.73.07-.25.17-.48.31-.7.28-.47.13-1.09-.34-1.37-.47-.28-1.09-.13-1.37.34Z"/><path class="cls-1" d="M16,25c-.55,0-1,.45-1,1v1c0,.55.45,1,1,1s1-.45,1-1v-1c0-.55-.45-1-1-1Z"/></svg>